<svg width="50" height="41" viewBox="0 0 50 41" fill="none" xmlns="http://www.w3.org/2000/svg">
<path d="M9.21093 4.87976C7.89844 4.44183 7.19531 3.02639 7.63281 1.71261C8.07031 0.398827 9.48437 -0.304985 10.7969 0.132942L19.625 3.08113C20.7031 1.23558 22.7109 0 25 0C28.4531 0 31.25 2.79961 31.25 6.2561C31.25 6.49071 31.2344 6.71749 31.2109 6.94428L40.7891 10.1427C42.1016 10.5806 42.8047 11.9961 42.3672 13.3099C41.9297 14.6236 40.5156 15.3275 39.2031 14.8895L28.625 11.3548C28.2734 11.6051 27.8984 11.8162 27.5 11.9961V37.5366C27.5 38.9208 26.3828 40.0391 25 40.0391H10C8.61718 40.0391 7.5 38.9208 7.5 37.5366C7.5 36.1525 8.61718 35.0342 10 35.0342H22.5V11.9883C20.8594 11.2688 19.5937 9.87682 19.0469 8.15639L9.21093 4.87194V4.87976ZM15.6562 22.522L10 12.8094L4.34375 22.522H15.6562ZM10 30.0293C5.08593 30.0293 0.999997 27.3705 0.156247 23.8592C-0.0468778 22.999 0.234372 22.1153 0.679685 21.349L8.11718 8.5865C8.50781 7.91397 9.22656 7.50732 10 7.50732C10.7734 7.50732 11.4922 7.92179 11.8828 8.5865L19.3203 21.349C19.7656 22.1153 20.0469 22.999 19.8437 23.8592C19 27.3705 14.9141 30.0293 10 30.0293ZM39.9062 22.8191L34.25 32.5317H45.5703L39.9062 22.8191ZM49.75 33.869C48.9062 37.3802 44.8203 40.0391 39.9062 40.0391C34.9922 40.0391 30.9062 37.3802 30.0625 33.869C29.8594 33.0088 30.1406 32.1251 30.5859 31.3587L38.0234 18.5963C38.4141 17.9237 39.1328 17.5171 39.9062 17.5171C40.6797 17.5171 41.3984 17.9316 41.7891 18.5963L49.2266 31.3587C49.6719 32.1251 49.9531 33.0088 49.75 33.869Z" fill="white" fill-opacity="0.6"/>
</svg>
